# xmcd
#
# Track frame offsets: 
#        150
#        16525
#        34037
#        53712
#        72400
#        92237
#        114862
#        133200
#        150675
#        173775
#
# Disc length: 2542 seconds
#
# Revision: 2
# Processed by: cddbd v1.5.2PL0 Copyright (c) Steve Scherf et al.
# Submitted via: ExactAudioCopyFreeDBPlugin 1.0
#
DISCID=7909ec0a
DTITLE=陳奕迅 - 我的快樂時代
DYEAR=98
DGENRE=pop
TTITLE0=我的快樂時代
TTITLE1=我甚麼都沒有
TTITLE2=天下無雙
TTITLE3=黃金時代
TTITLE4=新曲+精選
TTITLE5=愈想愈無謂
TTITLE6=相信相依
TTITLE7=兩種講法
TTITLE8=請相信我
TTITLE9=反高潮
EXTD=
EXTT0=
EXTT1=
EXTT2=
EXTT3=
EXTT4=
EXTT5=
EXTT6=
EXTT7=
EXTT8=
EXTT9=
PLAYORDER=
